<svg width="24" height="12" viewBox="0 0 24 12" fill="none" xmlns="http://www.w3.org/2000/svg">
<path d="M24 4.77244C24 5.19693 23.8592 5.60995 23.5983 6C21.4867 3.91583 16.6318 2.81453 12 2.81453C7.36824 2.81453 2.5133 3.91583 0.401717 6C0.140772 5.60995 0 5.19693 0 4.77244C0 2.13384 5.37339 0 12 0C18.6266 0 24 2.13384 24 4.77244Z" fill="#49EB32"/>
<path d="M24 8C24 10.2084 18.6266 12 12 12C5.37339 12 0 10.2084 0 8C0 7.46797 0.309013 6.96156 0.872101 6.50003C2.65064 5.03206 6.96311 4 12 4C17.0369 4 21.3493 5.03206 23.1279 6.50003C23.691 6.96156 24 7.46797 24 8Z" fill="#49EB32"/>
</svg>
