<svg width="54" height="54" viewBox="0 0 54 54" fill="none" xmlns="http://www.w3.org/2000/svg">
<g filter="url(#filter0_f_266_1354)">
<mask id="path-1-inside-1_266_1354" fill="white">
<path fill-rule="evenodd" clip-rule="evenodd" d="M5.33989 28.4315L40.7059 42.5539L30.3011 5.9214L12.4806 11.255L5.33989 28.4315ZM21.344 25.5121C22.441 26.7285 24.3163 26.8253 25.5327 25.7283C26.7491 24.6314 26.8459 22.7561 25.749 21.5397C24.652 20.3233 22.7767 20.2265 21.5603 21.3234C20.3439 22.4204 20.2471 24.2957 21.344 25.5121Z"/>
</mask>
<path d="M40.7059 42.5539L19.6059 95.3939L127.048 138.298L95.4381 27.0081L40.7059 42.5539ZM5.33989 28.4315L-47.1981 6.59014L-69.3489 59.8725L-15.7602 81.2715L5.33989 28.4315ZM30.3011 5.9214L85.0333 -9.62433L69.2673 -65.1319L13.987 -48.5867L30.3011 5.9214ZM12.4806 11.255L-3.83355 -43.253L-29.6948 -35.5128L-40.0574 -10.5863L12.4806 11.255ZM61.806 -10.2862L26.44 -24.4085L-15.7602 81.2715L19.6059 95.3939L61.806 -10.2862ZM-24.4311 21.4671L-14.0263 58.0996L95.4381 27.0081L85.0333 -9.62433L-24.4311 21.4671ZM28.7947 65.7631L46.6152 60.4295L13.987 -48.5867L-3.83355 -43.253L28.7947 65.7631ZM57.8778 50.2729L65.0185 33.0964L-40.0574 -10.5863L-47.1981 6.59014L57.8778 50.2729ZM-12.5715 -16.525C9.54801 -36.4725 43.65 -34.7116 63.5974 -12.5922L-20.9094 63.6163C1.23194 88.1686 39.0846 90.1231 63.6369 67.9817L-12.5715 -16.525ZM-16.5044 59.6439C-36.4519 37.5244 -34.6911 3.42241 -12.5715 -16.525L63.6369 67.9817C88.1892 45.8404 90.1437 7.98774 68.0024 -16.5645L-16.5044 59.6439ZM59.6645 63.5768C37.545 83.5243 3.44302 81.7635 -16.5044 59.6439L68.0024 -16.5645C45.861 -41.1168 8.00836 -43.0713 -16.5439 -20.93L59.6645 63.5768ZM63.5974 -12.5922C83.5449 9.52734 81.7841 43.6294 59.6645 63.5768L-16.5439 -20.93C-41.0962 1.21137 -43.0507 39.064 -20.9094 63.6163L63.5974 -12.5922Z" fill="#49EB32" mask="url(#path-1-inside-1_266_1354)"/>
</g>
<mask id="path-3-inside-2_266_1354" fill="white">
<path fill-rule="evenodd" clip-rule="evenodd" d="M5.33989 28.4315L40.7059 42.5539L30.3011 5.9214L12.4806 11.255L5.33989 28.4315ZM21.344 25.5121C22.441 26.7285 24.3163 26.8253 25.5327 25.7283C26.7491 24.6314 26.8459 22.7561 25.749 21.5397C24.652 20.3233 22.7767 20.2265 21.5603 21.3234C20.3439 22.4204 20.2471 24.2957 21.344 25.5121Z"/>
</mask>
<path fill-rule="evenodd" clip-rule="evenodd" d="M5.33989 28.4315L40.7059 42.5539L30.3011 5.9214L12.4806 11.255L5.33989 28.4315ZM21.344 25.5121C22.441 26.7285 24.3163 26.8253 25.5327 25.7283C26.7491 24.6314 26.8459 22.7561 25.749 21.5397C24.652 20.3233 22.7767 20.2265 21.5603 21.3234C20.3439 22.4204 20.2471 24.2957 21.344 25.5121Z" fill="#0F0F0F"/>
<path d="M40.7059 42.5539L39.9642 44.4113L43.741 45.9194L42.6298 42.0074L40.7059 42.5539ZM5.33989 28.4315L3.49312 27.6638L2.71449 29.5367L4.5982 30.2889L5.33989 28.4315ZM30.3011 5.9214L32.225 5.37495L31.6708 3.42379L29.7277 4.00538L30.3011 5.9214ZM12.4806 11.255L11.9071 9.33902L10.9981 9.61109L10.6338 10.4873L12.4806 11.255ZM41.4476 40.6965L6.08158 26.5741L4.5982 30.2889L39.9642 44.4113L41.4476 40.6965ZM28.3772 6.46785L38.782 43.1003L42.6298 42.0074L32.225 5.37495L28.3772 6.46785ZM13.054 13.1711L30.8746 7.83742L29.7277 4.00538L11.9071 9.33902L13.054 13.1711ZM7.18666 29.1993L14.3274 12.0228L10.6338 10.4873L3.49312 27.6638L7.18666 29.1993ZM24.1933 24.2431C23.7972 24.6003 23.1865 24.5688 22.8293 24.1727L19.8588 26.8515C21.6955 28.8881 24.8354 29.0503 26.8721 27.2136L24.1933 24.2431ZM24.2637 22.8791C24.6209 23.2752 24.5894 23.8859 24.1933 24.2431L26.8721 27.2136C28.9088 25.3769 29.0709 22.237 27.2342 20.2003L24.2637 22.8791ZM22.8997 22.8087C23.2958 22.4515 23.9065 22.483 24.2637 22.8791L27.2342 20.2003C25.3975 18.1636 22.2576 18.0015 20.2209 19.8382L22.8997 22.8087ZM22.8293 24.1727C22.4721 23.7766 22.5036 23.1659 22.8997 22.8087L20.2209 19.8382C18.1842 21.6748 18.0221 24.8148 19.8588 26.8515L22.8293 24.1727Z" fill="#49EB32" mask="url(#path-3-inside-2_266_1354)"/>
<defs>
<filter id="filter0_f_266_1354" x="0.619491" y="1.20103" width="44.8068" height="46.073" filterUnits="userSpaceOnUse" color-interpolation-filters="sRGB">
<feFlood flood-opacity="0" result="BackgroundImageFix"/>
<feBlend mode="normal" in="SourceGraphic" in2="BackgroundImageFix" result="shape"/>
<feGaussianBlur stdDeviation="2.36018" result="effect1_foregroundBlur_266_1354"/>
</filter>
</defs>
</svg>
